<svg xmlns="http://www.w3.org/2000/svg" viewBox="0 0 156.37 156.37"><defs><style>.cls-1{fill:#fff;}</style></defs><title>nintendo-switch-logo-white</title><g id="Layer_2" data-name="Layer 2"><g id="Layer_1-2" data-name="Layer 1"><g id="_Group_" data-name="&lt;Group&gt;"><circle id="_Path_" data-name="&lt;Path&gt;" class="cls-1" cx="39.05" cy="46.91" r="14.7"/><path id="_Compound_Path_" data-name="&lt;Compound Path&gt;" class="cls-1" d="M74.27,0H40.1A40.1,40.1,0,0,0,0,40.1v76.18a40.1,40.1,0,0,0,40.1,40.1H74.27a1.15,1.15,0,0,0,1.15-1.15V1.15A1.15,1.15,0,0,0,74.27,0ZM62.82,143.77H40.1a27.49,27.49,0,0,1-27.49-27.49V40.1A27.49,27.49,0,0,1,40.1,12.61H62.82Z"/><path id="_Compound_Path_2" data-name="&lt;Compound Path&gt;" class="cls-1" d="M116.28,0H92.09a1,1,0,0,0-1,1V155.23a1.15,1.15,0,0,0,1.15,1.15h24.06a40.1,40.1,0,0,0,40.1-40.1V40.1A40.1,40.1,0,0,0,116.28,0ZM122,101.82A15.81,15.81,0,1,1,137.81,86,15.81,15.81,0,0,1,122,101.82Z"/></g></g></g></svg>